<svg width="69" height="69" viewBox="0 0 69 69" fill="none" xmlns="http://www.w3.org/2000/svg">
<path fill-rule="evenodd" clip-rule="evenodd" d="M17.0613 25.3301H53.7985L53.7985 35.4426C53.7985 37.7365 52.1906 39.7378 49.9171 40.1623L49.9018 40.1651C49.5268 40.2312 49.0988 40.3101 48.7026 40.3833C48.4161 40.4361 48.1462 40.486 47.925 40.5256C47.6586 41.7816 47.0224 43.6025 45.7602 45.2841L45.7583 45.2866C44.7778 46.5874 43.6642 47.4272 42.8456 47.9332C42.347 48.2446 41.8237 48.3295 41.4046 48.3295H23.3836C22.9829 48.3295 22.4721 48.2463 21.9979 47.9639C21.2779 47.5361 20.266 46.8376 19.3169 45.7442L19.3152 45.7422C18.2744 44.5392 17.692 43.3201 17.3794 42.4717C17.2355 42.0961 17.208 41.7644 17.2075 41.5037L17.0613 25.3301ZM20.1517 28.3927L20.2698 41.4576C20.4924 42.049 20.9059 42.8996 21.6304 43.7374C22.2545 44.4562 22.9266 44.9426 23.456 45.2669H41.3327C41.9121 44.8968 42.6572 44.3124 43.3119 43.4442C44.3026 42.1236 44.7845 40.658 44.9568 39.7526L44.9583 39.7448C45.1827 38.598 46.0897 37.7154 47.2435 37.5361C47.5674 37.4795 47.842 37.4283 48.1444 37.372C48.4804 37.3095 48.8508 37.2405 49.3615 37.1505C50.1422 37.0015 50.7359 36.3006 50.7359 35.4426L50.7359 28.3927H20.1517Z" fill="#13334C"/>
<path fill-rule="evenodd" clip-rule="evenodd" d="M48.0509 27.4727V40.2199H44.9883V27.4727H48.0509Z" fill="#13334C"/>
<path fill-rule="evenodd" clip-rule="evenodd" d="M27.7717 23.1979L27.7717 15.8721L30.8343 15.8721L30.8343 23.1979L27.7717 23.1979Z" fill="#13334C"/>
<path fill-rule="evenodd" clip-rule="evenodd" d="M34.0232 22.9216V18.5205H37.0858V22.9216H34.0232Z" fill="#13334C"/>
<path fill-rule="evenodd" clip-rule="evenodd" d="M49.254 54.9718H15.8726V51.9092H49.254V54.9718Z" fill="#13334C"/>
<path fill-rule="evenodd" clip-rule="evenodd" d="M29.6544 31.5505C30.1446 30.9735 31.4504 29.81 33.2483 29.8537L33.2667 29.8542L33.2667 29.8543C34.8496 29.9156 36.0645 31.0518 36.8085 32.2281C37.578 33.4445 38.0527 35.0052 38.0267 36.5022C38.0082 37.9311 37.5279 39.4709 36.7464 40.6789C35.9867 41.8532 34.7427 42.9944 33.095 43.0069C33.0948 43.0069 33.0945 43.0069 33.0942 43.0069M29.6544 31.5505C28.7519 32.6058 28.3781 34.0161 28.2169 35.1137C28.0525 36.2342 28.0784 37.2567 28.1383 37.7265L28.1388 37.7301C28.2891 38.8823 28.8407 40.1427 29.6294 41.1275C30.403 42.0935 31.5961 43.0185 33.0942 43.0069M32.2493 32.6862C31.9455 32.8632 31.7167 33.0829 31.6078 33.2113L31.6039 33.2159L31.6039 33.2159C31.1701 33.7225 30.8902 34.5566 30.7538 35.486C30.6209 36.3911 30.6534 37.1769 30.6815 37.4003C30.7668 38.0503 31.1118 38.8767 31.6307 39.5248C32.1652 40.1921 32.6915 40.446 33.0746 40.443L33.0754 40.443C33.4705 40.4401 34.0415 40.1395 34.5936 39.2862C35.1233 38.4674 35.4514 37.3951 35.4629 36.4668L35.463 36.4598C35.4803 35.4944 35.1615 34.4205 34.6417 33.5988C34.1001 32.7427 33.5336 32.435 33.1758 32.4168C32.8602 32.4114 32.5458 32.5134 32.2493 32.6862Z" fill="#13334C"/>
<path fill-rule="evenodd" clip-rule="evenodd" d="M32.2103 33.6879C32.1967 33.5625 32.1798 33.4015 32.1798 33.2833H33.9604C33.9604 33.2813 33.9604 33.2803 33.9604 33.2803C33.9605 33.2803 33.961 33.2952 33.9642 33.3325C33.9677 33.3743 33.9732 33.4282 33.9805 33.4954C33.9886 33.5706 33.9973 33.646 34.0068 33.7288C34.0156 33.8058 34.0252 33.8893 34.0358 33.9849C34.0758 34.3454 34.1221 34.8046 34.1221 35.1759C34.1221 35.5976 34.0908 35.9569 33.992 36.2917C33.8895 36.6387 33.7316 36.9005 33.5682 37.1378L33.5619 37.147L33.5554 37.1559C33.5045 37.226 33.4494 37.3617 33.4306 37.5519C33.4119 37.7422 33.4381 37.9034 33.4671 37.9845L33.4679 37.9867L33.4679 37.9867C33.4672 37.9847 33.4668 37.9836 33.4668 37.9836C33.4669 37.9836 33.4714 37.9951 33.4843 38.0254C33.4981 38.0576 33.5152 38.0967 33.5366 38.1458L33.5407 38.155C33.5857 38.2581 33.6446 38.393 33.7018 38.5334C33.758 38.6715 33.8191 38.8307 33.8663 38.9833C33.9025 39.1005 33.9723 39.338 33.9591 39.5802L32.1812 39.4835C32.1785 39.5331 32.1825 39.5676 32.1843 39.5793C32.1825 39.5707 32.1772 39.5481 32.1651 39.5092C32.1402 39.4285 32.1011 39.3239 32.0526 39.2048C32.0051 39.088 31.9546 38.9722 31.9092 38.8682C31.9056 38.8601 31.9019 38.8516 31.898 38.8427C31.8628 38.7623 31.8164 38.6563 31.7908 38.5847C31.6585 38.2154 31.6186 37.7837 31.6586 37.3774C31.6983 36.9742 31.825 36.5137 32.1069 36.1204C32.2187 35.9572 32.2585 35.8747 32.2843 35.7875C32.314 35.6866 32.3415 35.5202 32.3415 35.1759C32.3415 34.9163 32.307 34.5493 32.2661 34.1813C32.2576 34.1044 32.2481 34.0214 32.2389 33.9411C32.2283 33.8485 32.2181 33.7596 32.2103 33.6879ZM32.1844 39.5801C32.1854 39.5851 32.1851 39.5846 32.1843 39.5793L32.1844 39.5801Z" fill="#13334C"/>
</svg>
