<svg width="69" height="69" viewBox="0 0 69 69" fill="none" xmlns="http://www.w3.org/2000/svg">
<path d="M40.7355 50.5596C39.6283 52.4679 37.4538 53.7233 34.7207 53.7233C31.5787 53.7233 29.4541 52.4176 28.297 50.2784L30.0526 47.7174C30.9303 49.8164 32.8754 50.7002 34.8105 50.7002C37.0348 50.7002 38.1819 49.4448 39.0198 47.858C39.5285 48.792 40.127 49.6758 40.7355 50.5596ZM46.9697 25.552C50.5306 28.2536 52.9345 32.301 52.6552 35.5149C52.3759 39.0099 52.4657 41.8019 53.7225 45.5682L51.179 47.155C49.1441 43.4792 49.603 38.5881 49.7925 35.9769C49.9321 33.8377 48.6853 31.1862 46.2814 28.8964C46.84 27.8418 46.9298 26.6768 46.9697 25.552ZM24.5964 27.0886C20.8559 29.5592 18.6814 33.3757 18.8609 35.9769C19.0904 39.3815 18.9507 43.8106 17.3348 47.155L14.6516 45.3874C16.0381 42.3644 16.2276 39.8435 15.8586 35.5149C15.5793 32.301 18.3522 27.4602 23.2598 24.2464C23.4792 25.3712 23.948 26.255 24.5964 27.0886ZM43.8276 30.1217L41.3738 28.3942C41.6033 28.0226 42.3414 26.8074 42.3913 25.8834C42.4411 24.9494 42.2017 24.5376 41.0946 23.9752C41.0048 22.9006 40.7255 22.298 40.0771 22.1574C39.4786 21.9666 38.9699 21.595 38.6906 21.0426C38.4612 20.671 38.1819 20.2994 37.2144 20.3396C35.4588 20.4299 35.409 18.8933 33.9327 18.8933C34.2519 19.8675 34.4414 21.0325 34.5312 22.3382L31.5687 22.5692C31.1498 17.5375 29.6735 17.6379 29.075 17.6781C27.7384 17.8187 27.2297 19.8173 27.4591 21.8661C27.7384 24.0556 29.6336 24.9394 28.8955 26.6567C28.5763 27.3999 28.5264 28.1934 28.5763 28.796L25.7136 29.6295C25.5739 28.1833 25.7136 26.5563 25.9929 25.9035C25.2048 24.8289 24.6961 23.5735 24.5166 22.2679C24.0079 18.5016 25.4841 14.9162 28.9055 14.6752C30.4316 14.5346 31.6784 15.0468 32.6061 16.1214C34.2719 15.4686 36.1172 15.9808 37.3241 17.3366C38.9899 17.2864 40.3265 17.9894 41.1644 19.2951C42.3214 19.7169 43.2491 20.6911 43.7079 21.9465C45.0046 22.9709 45.5133 24.2263 45.4236 25.9537C45.3139 28.0226 44.1967 29.5592 43.8276 30.1217ZM44.3862 52.046C43.1394 50.8308 38.2318 44.6944 38.2318 40.5465C38.2318 37.8951 37.8627 35.9869 37.1645 35.0027C35.4987 32.6325 35.3591 29.0872 38.1819 27.6912C41.0946 26.4358 42.9399 27.7816 44.2366 30.905C45.7128 34.3499 46.2215 35.5651 46.1817 35.5651L43.3588 36.6397C43.3588 36.6397 42.9399 35.4747 41.5135 32.0801C40.8651 30.5435 40.4462 30.0313 39.5684 30.4029C38.6009 30.8247 39.0098 32.4517 39.6183 33.2853C40.6856 34.8219 41.2342 37.1921 41.2342 40.5465C41.2342 42.8264 44.9348 47.9484 46.6405 50.0474L44.3862 52.046ZM24.1276 52.046L21.8633 50.0474C24.2672 47.6772 27.2696 42.8264 27.2696 40.5465C27.2696 37.1921 27.8282 34.8219 28.8855 33.2853C29.3942 32.5823 30.1822 30.8649 29.075 30.443C28.1075 30.0714 27.6885 30.443 26.9903 32.07C25.554 35.4647 25.145 36.6297 25.145 36.6297L22.3321 35.5651C22.2823 35.5651 22.791 34.3499 24.2273 30.905C25.524 27.7816 27.4691 26.4358 30.3318 27.6912C33.0649 29.037 33.0649 32.532 31.3493 35.0027C30.651 35.9769 30.282 37.8851 30.282 40.5465C30.282 44.6944 26.8606 50.1378 24.1276 52.046Z" fill="#13334C"/>
</svg>
