<svg width="69" height="69" viewBox="0 0 69 69" fill="none" xmlns="http://www.w3.org/2000/svg">
<path d="M51.427 50.5614H17.24L19.1691 33.2237C19.4621 30.5864 21.6965 28.584 24.3582 28.584H44.321C46.9827 28.584 49.2049 30.5864 49.5101 33.2237L51.427 50.5614Z" stroke="#10324A" stroke-width="3.13381" stroke-miterlimit="10"/>
<path d="M26.4705 33.1126V26.1775C26.4705 21.8553 30.0113 18.3145 34.3335 18.3145C38.6557 18.3145 42.1965 21.8553 42.1965 26.1775V33.1126" stroke="#13334C" stroke-width="3.13381" stroke-miterlimit="10"/>
<path d="M32.0136 42.0381C31.0735 42.0381 31.0735 42.6119 31.0735 43.7352C31.0735 44.9074 31.0735 45.4812 31.9648 45.4812C32.8927 45.4812 32.8927 44.8707 32.8927 43.7352C32.8805 42.5509 32.8805 42.0381 32.0136 42.0381Z" fill="#13334C"/>
<path d="M36.7143 42.0381C35.8108 42.0381 35.8108 42.6119 35.8108 43.7352C35.8108 44.9074 35.8596 45.4812 36.7143 45.4812C37.6056 45.4812 37.6056 44.8707 37.6056 43.7352C37.6056 42.5509 37.569 42.0381 36.7143 42.0381Z" fill="#13334C"/>
<path d="M37.4834 36.2871C35.7862 36.2871 34.7972 36.8976 34.3211 38.2895C33.9182 36.8854 32.8315 36.2871 31.2809 36.2871C29.5471 36.2871 28.3261 37.0929 27.8255 38.7535C27.4592 39.9744 27.3982 42.0134 27.3982 44.4676C27.3982 45.1513 27.5691 45.5054 28.3505 45.5054C29.1198 45.5054 29.4738 45.1513 29.4738 44.4676C29.4738 42.4896 29.486 40.5727 29.7424 39.5349C29.9378 38.729 30.3651 38.1186 31.3908 38.1186C32.1111 38.1186 32.978 38.3994 33.271 40.6215C33.3931 41.6594 33.6007 41.7448 34.3089 41.7448C35.0414 41.7448 35.249 41.696 35.3955 40.5971C35.6763 38.3261 36.6043 38.1186 37.2514 38.1186C38.3136 38.1186 38.7165 38.6924 38.9241 39.5349C39.1805 40.5849 39.2049 42.3797 39.2049 44.4554C39.2049 45.1269 39.4491 45.4688 40.3038 45.4688C41.2073 45.4688 41.2562 45.0903 41.2562 44.4554C41.2562 42.1966 41.1951 40.0843 40.7922 38.7413C40.3282 37.0929 39.2904 36.2871 37.4834 36.2871Z" fill="#13334C"/>
</svg>
