<svg width="69" height="69" viewBox="0 0 69 69" fill="none" xmlns="http://www.w3.org/2000/svg">
<path d="M44.5525 28.1031C39.0986 28.4192 36.8572 28.0188 35.531 27.4769C34.9304 27.2314 34.4928 26.9498 33.9496 26.6002L33.9472 26.5987C33.873 26.5509 33.7969 26.5019 33.7182 26.4515C33.0605 26.031 32.2958 25.573 31.1553 25.1789C28.4637 24.2489 25.4339 24.4284 23.1668 24.7749V24.5948M44.5525 28.1031C44.5646 27.8938 44.5708 27.6832 44.5708 27.4709V16.8579H44.3927M44.5525 28.1031L44.5422 27.9253C44.4888 27.9284 44.4356 27.9315 44.3827 27.9344M44.5525 28.1031L44.3748 28.0928C44.3778 28.0401 44.3805 27.9873 44.3827 27.9344M44.3927 16.8579V16.6799H23.1668V16.8579M44.3927 16.8579H23.1668M44.3927 16.8579V27.4709C44.3927 27.6263 44.3894 27.7807 44.3827 27.9344M23.1668 16.8579H22.9887V24.6224C23.0475 24.6131 23.1069 24.6039 23.1668 24.5948M23.1668 16.8579V24.5948M23.1668 24.5948C25.4409 24.2494 28.4918 24.0702 31.2134 25.0106C32.3729 25.4113 33.1511 25.8776 33.8141 26.3015L33.8142 26.3016C33.8931 26.3521 33.9693 26.4011 34.0436 26.449M34.0436 26.449C34.5889 26.7999 35.0141 27.0733 35.5984 27.312L35.5984 27.312C36.8734 27.8331 39.0506 28.2332 44.3827 27.9344M34.0436 26.449L33.9475 26.5982L34.0435 26.449C34.0436 26.449 34.0436 26.449 34.0436 26.449ZM43.9391 30.55C42.6196 34.91 38.5701 38.0839 33.7797 38.0839C27.9183 38.0839 23.1668 33.3324 23.1668 27.4709V27.217C25.2984 26.8617 28.057 26.659 30.368 27.4574C31.2513 27.7627 31.8336 28.108 32.4198 28.4827L32.5157 28.3327L32.4196 28.4826C32.4722 28.5163 32.5254 28.5506 32.5796 28.5855C32.5979 28.5973 32.6163 28.6091 32.6348 28.621L43.9391 30.55ZM20.7561 14.2692H20.578V14.4473V16.6799V27.4709C20.578 34.3253 25.8017 39.9594 32.4854 40.6099V51.4796H24.4771H24.2991V51.6577V53.5182V53.6962H24.4771H33.7797H43.0823H43.2604V53.5182V51.6577V51.4796H43.0823H35.0741V40.6099C41.7578 39.9594 46.9814 34.3253 46.9814 27.4709V16.6799V14.4473V14.2692H46.8034H44.5708H22.9887H20.7561Z" fill="#13334C" stroke="#13334C" stroke-width="0.356115"/>
</svg>
