<svg width="69" height="69" viewBox="0 0 69 69" fill="none" xmlns="http://www.w3.org/2000/svg">
<g clip-path="url(#clip0)">
<path d="M23.4022 28.7163L18.0154 19.0342L26.3704 17.1199L27.8875 19.6428L49.3579 14.7298C50.3033 14.5085 51.3037 14.7741 52.1172 15.438C53.1396 16.279 53.7553 17.6953 53.7223 19.1117L53.6563 21.7894L40.0684 24.8988L39.4637 22.1989L50.9629 19.5653L50.9739 19.0342C50.9959 18.3371 50.6661 17.806 50.3803 17.5736C50.2923 17.4961 50.1274 17.3855 49.9735 17.4187L26.5573 22.7853L25.0402 20.2514L22.2039 20.9042L24.7984 25.5516L34.4507 23.3386L35.0553 26.0385L23.4022 28.7163Z" fill="#13334C"/>
<path d="M32.8237 31.1724L33.8681 22.0658L36.5945 22.3867L36.0009 27.6094L38.0676 27.1336L39.4968 20.6494L42.1792 21.2469L40.3763 29.4462L32.8237 31.1724Z" fill="#13334C"/>
<path d="M40.1343 52.0528L24.1607 51.8315C23.3582 51.8204 22.8855 51.5106 22.8855 50.7028L22.6876 46.5202C22.6876 45.7345 23.3032 45.4469 24.0838 45.3915C24.2047 45.3805 35.7259 44.4731 39.9914 44.2186C41.9702 43.8756 42.1241 43.3555 42.4979 42.0941C42.7508 41.2421 43.1355 38.2987 43.4104 35.8755L21.8631 36.5172L21.7751 33.5296L45.0264 32.8325C45.4442 32.8215 45.8619 32.9985 46.1587 33.3083C46.4556 33.6292 46.5875 34.0497 46.5435 34.4812C46.4776 35.1783 45.8289 41.2974 45.3672 42.8465C44.8835 44.451 44.2679 46.5202 40.3981 47.162C40.3432 47.173 40.2992 47.173 40.2442 47.1841C36.9242 47.3833 28.8989 48.0029 25.6778 48.2574V48.8771L40.1343 49.2865V52.0528Z" fill="#13334C"/>
<path d="M22.8857 47.6706L20.4122 32.2678H14.6516V28.9482H21.8194C22.6329 28.9482 23.3145 29.5347 23.4464 30.3425L26.1398 47.1394L22.8857 47.6706Z" fill="#13334C"/>
<path d="M40.1345 57.3859C37.9138 57.3859 36.1108 55.5712 36.1108 53.336C36.1108 51.1008 37.9138 49.2861 40.1345 49.2861C42.3552 49.2861 44.1581 51.1008 44.1581 53.336C44.1581 55.5712 42.3552 57.3859 40.1345 57.3859ZM40.1345 52.0524C39.4309 52.0524 38.8592 52.6278 38.8592 53.336C38.8592 54.0442 39.4309 54.6196 40.1345 54.6196C40.838 54.6196 41.4097 54.0442 41.4097 53.336C41.4097 52.6278 40.838 52.0524 40.1345 52.0524Z" fill="#13334C"/>
<path d="M25.9418 57.3859C23.7211 57.3859 21.9182 55.5712 21.9182 53.336C21.9182 51.1008 23.7211 49.2861 25.9418 49.2861C28.1625 49.2861 29.9655 51.1008 29.9655 53.336C29.9655 55.5712 28.1625 57.3859 25.9418 57.3859ZM25.9418 52.0524C25.2383 52.0524 24.6666 52.6278 24.6666 53.336C24.6666 54.0442 25.2383 54.6196 25.9418 54.6196C26.6454 54.6196 27.2171 54.0442 27.2171 53.336C27.2171 52.6278 26.6454 52.0524 25.9418 52.0524Z" fill="#13334C"/>
</g>
<defs>
<clipPath id="clip0">
<rect width="39.0709" height="42.7338" fill="white" transform="translate(14.6516 14.6523)"/>
</clipPath>
</defs>
</svg>
