<svg width="69" height="69" viewBox="0 0 69 69" fill="none" xmlns="http://www.w3.org/2000/svg">
<path fill-rule="evenodd" clip-rule="evenodd" d="M23.2705 18.6421C22.7018 18.8987 21.9383 19.3202 21.2014 20.0489L21.1976 20.0527L21.1976 20.0527C20.6736 20.5672 20.3067 21.0936 20.0627 21.52C20.061 21.5275 20.0575 21.5475 20.0575 21.583V29.6408H16.9949V21.583C16.9949 21.0798 17.1013 20.5404 17.3859 20.0318L17.3909 20.0228L17.3909 20.0228C17.7498 19.3913 18.2845 18.6213 19.0499 17.8694C20.1365 16.7954 21.2555 16.1887 22.0403 15.8373C22.4976 15.6277 22.9432 15.5791 23.2915 15.5791H40.0759C40.5089 15.5791 40.9444 15.6606 41.356 15.8261L41.3696 15.8316L41.383 15.8373C42.1782 16.1748 43.198 16.7236 44.2322 17.6223L44.2328 17.6229C45.1182 18.3932 45.7849 19.1953 46.2425 19.9093C46.6452 20.5119 46.825 21.188 46.825 21.8559V29.6408H43.7624V21.8559C43.7624 21.7427 43.735 21.6682 43.6946 21.6086L43.6824 21.5907L43.6708 21.5724C43.3747 21.1081 42.899 20.522 42.2232 19.934C41.486 19.2933 40.7642 18.9035 40.2047 18.6642C40.166 18.6499 40.1221 18.6417 40.0759 18.6417H23.2915C23.2832 18.6417 23.2762 18.6418 23.2705 18.6421Z" fill="#13334C"/>
<path fill-rule="evenodd" clip-rule="evenodd" d="M35.3992 24.9934C35.5175 22.922 33.6441 21.2195 31.6953 21.4204L31.6953 21.4204L31.6845 21.4216C30.1285 21.5954 28.6899 22.9707 28.6899 24.8031C28.6899 26.542 30.0053 27.8721 31.4482 28.1267C33.31 28.4705 35.2958 27.0358 35.3992 24.9934ZM31.9637 23.9704C32.3645 23.9335 32.8671 24.3781 32.8393 24.8486L32.8392 24.8486L32.8385 24.8623C32.8173 25.2996 32.3082 25.6793 31.9125 25.6051L31.9125 25.6049L31.895 25.6019C31.7702 25.5803 31.6004 25.4963 31.4609 25.3368C31.3288 25.1859 31.254 25.0021 31.254 24.8031C31.254 24.5863 31.3379 24.391 31.4825 24.2352C31.6332 24.0729 31.8182 23.9882 31.9637 23.9704Z" fill="#13334C"/>
<path d="M35.5515 51.5942C31.3592 51.5942 27.1819 51.5942 22.9896 51.5942C19.1592 47.9099 17.6663 42.467 19.114 37.5395C20.7577 31.9601 26.0207 27.6392 32.1886 27.7756C37.6929 27.8969 42.6543 31.5356 44.5394 36.9028" stroke="#13334C" stroke-width="3.06259" stroke-miterlimit="10"/>
<path fill-rule="evenodd" clip-rule="evenodd" d="M47.0428 35.553V32.7041H51.6321L51.5411 34.2143C51.4727 35.3489 51.2002 37.1105 50.2474 39.0104C49.6621 40.1866 48.9773 41.0603 48.4375 41.6852L46.2815 39.823C46.7366 39.296 47.2577 38.624 47.6976 37.7394L47.6999 37.7349C48.0893 36.959 48.3313 36.2124 48.4806 35.553H47.0428Z" fill="#13334C"/>
<path fill-rule="evenodd" clip-rule="evenodd" d="M39.8945 38.4775L40.6088 38.8835C41.0509 39.1347 41.7154 39.6012 42.3228 40.3598L42.3249 40.3624L42.3249 40.3624C42.9258 41.1176 43.2049 41.852 43.3485 42.3031L41.1767 42.9944C41.0791 42.6878 40.906 42.2401 40.5425 41.7828C40.4195 41.6293 40.2931 41.4952 40.1699 41.379C39.5346 42.1215 38.7142 43.3685 38.4752 45.0638C38.2429 46.7793 38.7159 48.2599 39.3235 49.383C39.6564 47.874 40.4058 46.0649 42.0451 44.5427L42.0465 44.5415C44.643 42.1385 47.7328 42.0528 48.7716 42.0855C49.6152 42.0993 50.128 42.8205 50.128 43.4826C50.128 44.5915 49.9119 47.4724 47.7309 50.042L47.7305 50.0425C46.3457 51.6724 44.6819 52.6338 43.2838 53.1287C42.5866 53.3756 41.9305 53.5154 41.3816 53.556C41.1095 53.5762 40.8342 53.5742 40.5788 53.5352C40.3693 53.5032 39.993 53.4215 39.6814 53.1437C39.4202 53.0915 39.1699 52.9661 38.9664 52.7615L38.9511 52.7461L38.9363 52.7301C37.912 51.6185 35.6801 48.7083 36.2172 44.7544L36.2179 44.7492L36.2179 44.7492C36.6653 41.5662 38.6348 39.6107 39.2837 39.027L39.8945 38.4775ZM41.3613 51.2684C41.664 51.2315 42.0633 51.1431 42.5232 50.9803C43.5982 50.5997 44.905 49.848 45.9933 48.5672M41.3613 51.2684C41.4271 49.9701 41.8341 47.8493 43.5952 46.2136C45.0335 44.8828 46.694 44.4941 47.7915 44.3927C47.6592 45.4799 47.2414 47.0964 45.9936 48.5668M40.9222 51.2821C40.9086 51.2799 40.9026 51.2783 40.903 51.278C40.9034 51.2778 40.9102 51.2788 40.9222 51.2821Z" fill="#13334C"/>
<path fill-rule="evenodd" clip-rule="evenodd" d="M35.642 34.7746H21.2705V31.7832H35.642V34.7746Z" fill="#13334C"/>
<path fill-rule="evenodd" clip-rule="evenodd" d="M45.1517 48.4392L41.7133 52.3054L40.4893 51.2167L43.9276 47.3506L45.1517 48.4392Z" fill="#13334C"/>
</svg>
