<svg width="69" height="69" viewBox="0 0 69 69" fill="none" xmlns="http://www.w3.org/2000/svg">
<path d="M28.0282 41.0255L21.3306 35.9027L29.4607 25.2776L39.8865 33.2559L34.6214 40.1338C34.8017 40.1907 34.9914 40.2476 35.1622 40.314C35.8547 40.5986 36.4998 40.9971 37.1354 41.5283L54.5719 18.7223L52.3046 16.9958L47.7035 23.0103L39.4217 16.6732C36.9931 14.8138 33.2648 15.6012 31.1113 18.4188L19.0633 34.1667L15.5437 31.4724L13.8171 33.7398L25.9601 43.0272C26.5103 42.2398 27.2123 41.5568 28.0282 41.0255ZM33.3692 20.1548C34.555 18.6085 36.5282 18.0488 37.6951 18.9405L45.977 25.2776L41.6036 30.9981L31.1777 23.0103L33.3692 20.1548Z" fill="#13334C"/>
<path d="M37.1448 49.4124C37.6761 48.1033 37.6761 46.6613 37.1258 45.3616C36.8033 44.5932 36.3005 43.9386 35.6839 43.4074C35.257 43.0374 34.7826 42.7243 34.2514 42.5061C33.8529 42.3449 33.445 42.25 33.0371 42.1836C32.762 42.1456 32.4868 42.1172 32.2022 42.1172C31.5192 42.1172 30.8457 42.25 30.1911 42.5156C30.1436 42.5346 30.1057 42.5631 30.0677 42.582C29.3847 42.8951 28.7776 43.3315 28.2843 43.8722C28.123 44.0525 27.9712 44.2517 27.8384 44.4509C27.6486 44.745 27.4779 45.0581 27.3451 45.3806C26.8138 46.6898 26.8138 48.1317 27.364 49.4314C28.2178 51.4616 30.1816 52.6759 32.2592 52.6759C32.9422 52.6759 33.6347 52.543 34.2988 52.2679C35.5985 51.7462 36.6136 50.7216 37.1448 49.4124ZM33.1889 49.6686C32.8758 49.8014 32.5627 49.8583 32.2402 49.8583C31.282 49.8583 30.3713 49.2891 29.9824 48.3499C29.7262 47.7428 29.7262 47.0787 29.9729 46.4716C30.0108 46.3767 30.0677 46.2913 30.1152 46.2059C30.3808 45.7316 30.7887 45.3616 31.2915 45.1434C31.4433 45.077 31.6046 45.0296 31.7564 45.0011C31.9082 44.9727 32.0789 44.9537 32.2402 44.9537C32.4015 44.9537 32.5533 44.9727 32.705 45.0011C32.8568 45.0296 33.0181 45.077 33.1604 45.1434C33.464 45.2668 33.7296 45.447 33.9478 45.6652C34.1755 45.8929 34.3652 46.1585 34.4885 46.4621C35.0293 47.7048 34.4411 49.1468 33.1889 49.6686Z" fill="#13334C"/>
</svg>
