<svg width="69" height="69" viewBox="0 0 69 69" fill="none" xmlns="http://www.w3.org/2000/svg">
<path d="M36.2734 20.292H32.1426V23.1278H36.2734V20.292Z" fill="#13334C"/>
<path d="M28.56 43.7161C30.4978 43.7161 32.0669 42.1375 32.0669 40.2091C32.0669 38.2808 30.4883 36.7021 28.56 36.7021C26.6221 36.7021 25.053 38.2808 25.053 40.2091C25.053 42.1375 26.6221 43.7161 28.56 43.7161ZM28.56 39.0653C29.1933 39.0653 29.7037 39.5758 29.7037 40.2091C29.7037 40.8425 29.1933 41.3529 28.56 41.3529C27.9266 41.3529 27.4162 40.8425 27.4162 40.2091C27.4162 39.5758 27.9266 39.0653 28.56 39.0653Z" fill="#13334C"/>
<path d="M40.0546 43.7161C41.9924 43.7161 43.5616 42.1375 43.5616 40.2091C43.5616 38.2808 41.983 36.7021 40.0546 36.7021C38.1168 36.7021 36.5476 38.2808 36.5476 40.2091C36.5476 42.1375 38.1168 43.7161 40.0546 43.7161ZM40.0546 39.0653C40.6879 39.0653 41.1984 39.5758 41.1984 40.2091C41.1984 40.8425 40.6879 41.3529 40.0546 41.3529C39.4212 41.3529 38.9108 40.8425 38.9108 40.2091C38.9108 39.5758 39.4212 39.0653 40.0546 39.0653Z" fill="#13334C"/>
<path d="M46.1612 46.8253C47.5035 45.5681 48.1841 43.6019 48.1841 40.9268V20.0834L47.5224 19.6675C47.2672 19.5068 41.1701 15.6689 34.1278 15.6689C27.0855 15.6689 21.1397 19.5068 20.8845 19.6769L20.2511 20.0928V40.9268C20.2511 43.4885 20.9884 45.4641 22.3496 46.7497L15.0994 52.7049H19.5611L25.0248 48.2148C25.7054 48.3945 26.4521 48.489 27.2651 48.489H41.1512C41.9736 48.489 42.7298 48.4039 43.4104 48.2432L48.8458 52.7144H53.3075L46.1612 46.8253ZM45.3388 40.9268C45.3388 44.3676 44.2045 45.6437 41.1512 45.6437H27.2651C25.3178 45.6437 23.0775 45.1049 23.0775 40.9268V34.8675H45.3388V40.9268V40.9268ZM45.3388 32.0317H23.087V27.4376H45.3482V32.0317H45.3388ZM45.3388 24.6018H23.087V21.662C24.7034 20.7545 29.184 18.5048 34.1278 18.5048C39.0811 18.5048 43.6751 20.764 45.3388 21.6809V24.6018Z" fill="#13334C"/>
</svg>
